<mxfile host="app.diagrams.net" modified="2024-04-13T09:49:49.580Z" agent="Mozilla/5.0 (Windows NT 10.0; Win64; x64) AppleWebKit/537.36 (KHTML, like Gecko) Chrome/123.0.0.0 Safari/537.36" version="24.1.0" etag="3mHTNEfBHIpM3-Cw0fPw" type="github">
  <diagram name="Page-1" id="G0cd4cRfNRTUfoor176m">
    <mxGraphModel>
      <root>
        <mxCell id="0" />
        <mxCell id="1" parent="0" />
      </root>
    </mxGraphModel>
  </diagram>
</mxfile>
